# xmcd CD database file
#
# Track frame offsets:
#	150
#	17292
#	33792
#	54505
#	71047
#	101737
#	122110
#	145617
#	166342
#	191577
#	210532
#	228587
#
# Disc length: 3302 seconds
#
# Revision: 0
# Processed by: cddbd v1.5.2PL0 Copyright (c) Steve Scherf et al.
# Submitted via: CDex 1.50beta10
#
DISCID=9d0ce40c
DTITLE=Kenny Parker - Raise the Dead
DYEAR=1996
DGENRE=Blues
TTITLE0=Too Hot for Me
TTITLE1=Your Girl's Gone Bad
TTITLE2=Take It Easy on a Fool
TTITLE3=She's the One for Me
TTITLE4=Shake Hands With the Devil
TTITLE5=Baby Cakes Bop
TTITLE6=Cryin' for Help
TTITLE7=You're So Sharp
TTITLE8=Blues for Mr. Bo
TTITLE9=Crazy 'Bout My Baby
TTITLE10=Brunoise
TTITLE11=Afterglow
EXTD=YEAR: 1996
EXTT0=
EXTT1=
EXTT2=
EXTT3=
EXTT4=
EXTT5=
EXTT6=
EXTT7=
EXTT8=
EXTT9=
EXTT10=
EXTT11=
PLAYORDER=
